<svg xmlns="http://www.w3.org/2000/svg" width="1200" height="675" viewBox="0 0 1200 675">
  <defs>
    <linearGradient id="bg" x1="0" y1="0" x2="1" y2="1">
      <stop offset="0" stop-color="#0b1020"/>
      <stop offset="1" stop-color="#171b36"/>
    </linearGradient>
    <radialGradient id="glow" cx="0.5" cy="0.42" r="0.5">
      <stop offset="0" stop-color="#fbbf24" stop-opacity="0.32"/>
      <stop offset="1" stop-color="#fbbf24" stop-opacity="0"/>
    </radialGradient>
    <linearGradient id="acc" x1="0" y1="0" x2="1" y2="0">
      <stop offset="0" stop-color="#fbbf24"/>
      <stop offset="1" stop-color="#f87171"/>
    </linearGradient>
    <pattern id="grid" width="40" height="40" patternUnits="userSpaceOnUse">
      <path d="M40 0H0V40" fill="none" stroke="#ffffff" stroke-opacity="0.045" stroke-width="1"/>
    </pattern>
  </defs>
  <rect width="1200" height="675" fill="url(#bg)"/>
  <rect width="1200" height="675" fill="url(#grid)"/>
  <rect width="1200" height="675" fill="url(#glow)"/>
  <line x1="90" y1="120" x2="330" y2="90" stroke="#fbbf24" stroke-opacity="0.18" stroke-width="1.5"/><line x1="90" y1="120" x2="160" y2="360" stroke="#fbbf24" stroke-opacity="0.18" stroke-width="1.5"/><line x1="160" y1="360" x2="210" y2="560" stroke="#fbbf24" stroke-opacity="0.18" stroke-width="1.5"/><line x1="160" y1="360" x2="260" y2="250" stroke="#fbbf24" stroke-opacity="0.18" stroke-width="1.5"/><line x1="260" y1="250" x2="330" y2="90" stroke="#fbbf24" stroke-opacity="0.18" stroke-width="1.5"/><line x1="1050" y1="110" x2="880" y2="70" stroke="#fbbf24" stroke-opacity="0.18" stroke-width="1.5"/><line x1="1050" y1="110" x2="1000" y2="300" stroke="#fbbf24" stroke-opacity="0.18" stroke-width="1.5"/><line x1="1000" y1="300" x2="1110" y2="420" stroke="#fbbf24" stroke-opacity="0.18" stroke-width="1.5"/><line x1="1110" y1="420" x2="960" y2="580" stroke="#fbbf24" stroke-opacity="0.18" stroke-width="1.5"/><line x1="1000" y1="300" x2="960" y2="580" stroke="#fbbf24" stroke-opacity="0.18" stroke-width="1.5"/><circle cx="90" cy="120" r="5" fill="#fbbf24" fill-opacity="0.45"/><circle cx="210" cy="560" r="3.5" fill="#fbbf24" fill-opacity="0.45"/><circle cx="330" cy="90" r="3.5" fill="#fbbf24" fill-opacity="0.45"/><circle cx="160" cy="360" r="5" fill="#fbbf24" fill-opacity="0.45"/><circle cx="1050" cy="110" r="3.5" fill="#fbbf24" fill-opacity="0.45"/><circle cx="1110" cy="420" r="3.5" fill="#fbbf24" fill-opacity="0.45"/><circle cx="960" cy="580" r="5" fill="#fbbf24" fill-opacity="0.45"/><circle cx="880" cy="70" r="3.5" fill="#fbbf24" fill-opacity="0.45"/><circle cx="260" cy="250" r="3.5" fill="#fbbf24" fill-opacity="0.45"/><circle cx="1000" cy="300" r="5" fill="#fbbf24" fill-opacity="0.45"/>
  <g>
        <path d="M430.1 324.1 A170 170 0 0 1 509.9 185.8" fill="none" stroke="#4ade80" stroke-width="22" stroke-linecap="round"/><path d="M520.2 179.9 A170 170 0 0 1 679.8 179.9" fill="none" stroke="#fbbf24" stroke-width="22" stroke-linecap="round"/><path d="M690.1 185.8 A170 170 0 0 1 769.9 324.1" fill="none" stroke="#f87171" stroke-width="22" stroke-linecap="round"/>
        <line x1="464.0" y1="330.0" x2="452.0" y2="330.0" stroke="#94a3b8" stroke-width="3"/><line x1="482.2" y1="262.0" x2="471.8" y2="256.0" stroke="#94a3b8" stroke-width="3"/><line x1="532.0" y1="212.2" x2="526.0" y2="201.8" stroke="#94a3b8" stroke-width="3"/><line x1="600.0" y1="194.0" x2="600.0" y2="182.0" stroke="#94a3b8" stroke-width="3"/><line x1="668.0" y1="212.2" x2="674.0" y2="201.8" stroke="#94a3b8" stroke-width="3"/><line x1="717.8" y1="262.0" x2="728.2" y2="256.0" stroke="#94a3b8" stroke-width="3"/><line x1="736.0" y1="330.0" x2="748.0" y2="330.0" stroke="#94a3b8" stroke-width="3"/>
        <line x1="600" y1="330" x2="506.3" y2="226.0" stroke="#f1f5f9" stroke-width="6" stroke-linecap="round"/>
        <circle cx="600" cy="330" r="14" fill="#f1f5f9"/>
        <text x="600" y="400" text-anchor="middle" font-family="'JetBrains Mono','Cascadia Code','Consolas','Menlo',monospace" font-size="40" font-weight="700" fill="#fbbf24">42 ms</text>
      </g>
  <text x="600" y="500" text-anchor="middle" font-family="'PingFang SC','Microsoft YaHei','Noto Sans CJK SC','Source Han Sans SC',sans-serif" font-size="60" font-weight="700" fill="#f1f5f9" letter-spacing="2">延迟数字的真相</text>
  <rect x="540" y="524" width="120" height="4" rx="2" fill="url(#acc)"/>
  <text x="600" y="572" text-anchor="middle" font-family="'PingFang SC','Microsoft YaHei','Noto Sans CJK SC','Source Han Sans SC',sans-serif" font-size="20" font-weight="600" fill="#fbbf24" fill-opacity="0.9" letter-spacing="5">TCPING · URL TEST · REAL SPEED</text>
</svg>
